<svg height="512pt" viewBox="-2 0 512 512.00187" width="512pt" xmlns="http://www.w3.org/2000/svg"><path d="m495.601562 471.578125h-31.96875c-12.980468-11.410156-28.886718-19.078125-46.113281-22.0625l38.558594-28.242187c3.5-2.566407 5.355469-6.839844 4.835937-11.15625-.515624-4.300782-3.320312-8.003907-7.316406-9.660157-29.886718-12.390625-63.183594-8.902343-89.699218 9.246094l.019531-64.980469c.003906-4.339844-2.347657-8.363281-6.136719-10.496094-3.773438-2.125-8.417969-2.054687-12.121094.191407-11.625 7.050781-21.546875 16.566406-29.132812 27.667969l-.988282-34.738282h68.585938c20.710938 0 37.558594-16.847656 37.558594-37.554687 0-18.761719-13.832032-34.355469-31.832032-37.121094.203126-1.585937.304688-3.183594.304688-4.796875 0-20.707031-16.847656-37.554688-37.558594-37.554688h-38.363281c.167969-1.441406.25-2.898437.25-4.359374 0-20.710938-16.847656-37.558594-37.554687-37.558594h-57.527344c-20.707032 0-37.554688 16.847656-37.554688 37.558594 0 13.59375 7.210938 25.867187 18.746094 32.511718-.789062 3.054688-1.191406 6.203125-1.191406 9.402344 0 1.464844.085937 2.917969.253906 4.363281h-26.398438l-2.945312-103.554687 85.121094.015625h.003906c4.035156 0 7.777344-2.1875 9.757812-5.707031 1.976563-3.507813 1.910157-7.816407-.171874-11.25-11.332032-18.695313-29.574219-31.546876-50.429688-36.042969l28.800781-21.09375c3.257813-2.386719 4.980469-6.359375 4.496094-10.371094-.480469-4-3.085937-7.441406-6.804687-8.980469-23.941407-9.929687-50.527344-7.554687-72.125 6.21875l.015624-50.28125c0-4.035156-2.183593-7.773437-5.703124-9.753906-3.511719-1.976562-7.828126-1.910156-11.273438.175781-21.449219 13.011719-35.0625 34.828125-37.421875 59.382813-21.457031-13.347656-47.710937-15.554688-71.375-5.742188-3.71875 1.539063-6.324219 4.980469-6.804687 8.980469-.484376 4.011719 1.238281 7.984375 4.496093 10.371094l28.890625 21.164062c-20.714844 4.558594-38.871094 17.394531-50.121094 35.921875-2.085937 3.433594-2.152343 7.746094-.179687 11.257813 1.980469 3.523437 5.71875 5.710937 9.757813 5.710937l50.660156.007813h.003906c4.132812 0 7.484375-3.351563 7.484375-7.484375 0-4.136719-3.351563-7.488282-7.484375-7.488282l-43.492188-.003906c11.34375-14.773437 28.609376-23.882812 47.429688-24.722656 4.132812-.101562 7.738281-2.820312 8.976562-6.765625 1.242188-3.949219-.167968-8.246094-3.507812-10.691406l-33.792969-24.753907c18.894531-5.554687 39.109375-2.097656 55.253907 9.726563.425781.3125 1.226562.929687 2.621093 2.101563 2.945313 2.46875 7.066407 2.953124 10.503907 1.242187 3.445312-1.714844 5.542968-5.304687 5.347656-9.144531-.035156-.738282-.0625-1.449219-.0625-2.019532.007812-20.011718 9.167968-38.359374 24.820312-50.316406l-.015625 53.726563c-.003906 3.769531 2.210938 7.21875 5.636719 8.789062 3.421875 1.566407 7.476562.992188 10.324219-1.460937 1.9375-1.667969 3.007812-2.507813 3.570312-2.917969 16.140625-11.824219 36.359375-15.28125 55.253907-9.722656l-34.257813 25.089843c-3.265625 2.394532-4.644531 6.59375-3.429687 10.453126 1.214843 3.871093 4.761718 6.535156 8.824218 6.628906.011719 0 .027344 0 .039063.003906 19.191406.59375 36.796875 9.730469 48.328125 24.789062l-136.097656-.027343c-4.132813 0-7.484376 3.351562-7.488282 7.488281 0 4.132812 3.351563 7.484375 7.484375 7.484375h.199219l-7.699219 270.792969c-.117187 4.132812 3.140625 7.578125 7.269531 7.695312.074219 0 .148438.003906.21875.003906 4.035157 0 7.363282-3.214843 7.480469-7.273437l7.710938-271.214844 27.980469.003907 3.003906 105.589843c-14.761719 5.066407-25.402344 19.070313-25.402344 35.523438 0 17.203125 11.632812 31.730469 27.4375 36.160156l4.867188 171.078125h-47.792969l1.328125-46.703125c.117187-4.132813-3.136719-7.578125-7.269532-7.695313-4.15625-.132812-7.578124 3.140626-7.695312 7.269532l-.617188 21.675781h-90.46875c-7.019531 0-12.726562 5.710937-12.726562 12.726563v14.972656c0 7.015625 5.707031 12.722656 12.726562 12.722656h482.875c7.019532 0 12.726563-5.707031 12.726563-12.722656v-14.972656c0-7.019532-5.707031-12.726563-12.726563-12.726563zm-480.628906 14.972656h87.796875l-.296875 10.476563h-87.5zm333.972656-136.402343-.023437 69.394531c0 3.964843 2.324219 7.59375 5.929687 9.242187 3.597657 1.652344 7.859376 1.046875 10.859376-1.535156 2.410156-2.078125 3.769531-3.140625 4.488281-3.667969 21.207031-15.53125 48.007812-19.570312 72.65625-11.183593l-44.824219 32.832031c-3.421875 2.507812-4.867188 6.910156-3.597656 10.953125 1.273437 4.042968 4.964844 6.828125 9.203125 6.945312.007812 0 .015625 0 .023437.003906 25.289063.753907 48.390625 13.320313 62.804688 33.894532l-146.105469-.003906-2.878906-101.339844c4.664062-18.320313 15.96875-34.625 31.464843-45.535156zm-105.449218 115.769531-.882813 31.082031-43.285156-.011719c10.722656-15.28125 26.324219-26.210937 44.167969-31.070312zm1.0625-37.328125-22.09375-16.183594c7.296875-2.460938 14.972656-3.863281 22.671875-4.15625zm60.824218 68.429687-47.789062-.015625 4.820312-169.652344h38.144532zm-157.472656-207.226562c0-12.449219 10.132813-22.582031 22.585938-22.582031h35.945312c3.027344 0 5.898438-1.460938 7.679688-3.910157 1.769531-2.4375 2.277344-5.597656 1.351562-8.460937-.726562-2.238282-1.097656-4.582032-1.097656-6.960938 0-2.976562.574219-5.871094 1.699219-8.601562.972656-2.347656.96875-4.929688-.011719-7.273438s-2.816406-4.164062-5.171875-5.121094c-8.550781-3.484374-14.074219-11.695312-14.074219-20.917968 0-12.453125 10.132813-22.585938 22.585938-22.585938h57.527344c12.453124 0 22.585937 10.132813 22.585937 22.585938 0 2.378906-.371094 4.722656-1.09375 6.960937-.929687 2.855469-.425781 6.019531 1.34375 8.457031 1.78125 2.449219 4.65625 3.910157 7.683594 3.910157h45.144531c12.453125 0 22.585938 10.132812 22.585938 22.585937 0 2.378906-.367188 4.722656-1.097657 6.964844-.925781 2.859375-.417969 6.019531 1.351563 8.457031 1.78125 2.445313 4.652344 3.910157 7.679687 3.910157h1.011719c12.453125 0 22.582031 10.132812 22.582031 22.582031 0 12.453125-10.128906 22.585937-22.582031 22.585937h-150.011719c-4.132812 0-7.484375 3.351563-7.484375 7.484375 0 4.136719 3.351563 7.488281 7.484375 7.488281h13.324219l-1.871094 65.90625c-11.59375.320313-23.160156 2.765626-33.847656 7.199219-3.996094 1.65625-6.800781 5.359375-7.320312 9.660157-.519532 4.316406 1.335937 8.589843 4.839843 11.15625l34.804688 25.496093-.101563 3.609375c-15.621094 3.464844-29.949218 10.789063-41.796875 21.199219h-22.648437l-4.101563-144.226563h26.78125c4.132813 0 7.484375-3.351562 7.484375-7.488281 0-4.132812-3.351562-7.484375-7.484375-7.484375h-31.679687c-12.453125 0-22.585938-10.132812-22.585938-22.585937zm32.011719 196.757812h8.480469c-1.695313 2.300781-3.304688 4.683594-4.804688 7.152344-.632812 1.046875-1.074218 2.171875-1.359375 3.324219h-2.019531zm313.433594 10.476563h-9.804688c-.289062-1.132813-.726562-2.238282-1.347656-3.261719-1.511719-2.496094-3.132813-4.898437-4.839844-7.214844h15.996094v10.476563zm0 0"/></svg>